<?xml version="1.0" encoding="utf-8"?>
<!-- Generator: Adobe Illustrator 16.0.0, SVG Export Plug-In . SVG Version: 6.00 Build 0)  -->
<!DOCTYPE svg PUBLIC "-//W3C//DTD SVG 1.1//EN" "http://www.w3.org/Graphics/SVG/1.1/DTD/svg11.dtd">
<svg version="1.1" id="Layer_1" xmlns="http://www.w3.org/2000/svg" xmlns:xlink="http://www.w3.org/1999/xlink" x="0px" y="0px"
	 width="149px" height="44px" viewBox="0 0 149 44" enable-background="new 0 0 149 44" xml:space="preserve">
<g>
	<g>
		<path fill="#3B0C36" d="M28.164,29.424c0.563,0,1.099,0.133,1.575,0.366V14.187h7.251v-3.776H18.754v3.776h7.251v2.314H13.183
			v2.413h12.823v2.212h-9.079v2.414h9.079v2.211h-5.233v2.414h5.233v1.954c0.592-0.428,1.315-0.682,2.107-0.694L28.164,29.424z"/>
		<path fill="#3B0C36" d="M46.293,29.424c0.424,0,0.832,0.075,1.209,0.212l-0.023-10.143h-12.11v2.412h9.701l0.02,7.719
			c0.359-0.123,0.747-0.194,1.15-0.2H46.293z"/>
		<path fill="#3B0C36" d="M43.129,31.216H31.281c0.334,0.56,0.527,1.214,0.53,1.915c0,0.182-0.012,0.359-0.036,0.536h10.832
			c-0.02-0.142-0.03-0.286-0.03-0.431C42.576,32.489,42.776,31.798,43.129,31.216z"/>
		<path fill="#3B0C36" d="M30.356,31.216c-0.178-0.214-0.388-0.401-0.618-0.557c-0.453-0.304-0.994-0.482-1.575-0.482h-0.04
			c-0.843,0.015-1.59,0.376-2.119,0.952c-0.5,0.546-0.805,1.282-0.803,2.104c0.003,1.513,1.367,2.84,2.917,2.84h0.006
			c0.799-0.002,1.54-0.305,2.088-0.854c0.423-0.425,0.695-0.964,0.796-1.553c0.03-0.173,0.048-0.353,0.046-0.534
			C31.054,32.402,30.79,31.732,30.356,31.216z M28.136,34.35c-0.677,0-1.226-0.548-1.226-1.226c0-0.676,0.549-1.226,1.226-1.226
			c0.676,0,1.225,0.549,1.225,1.226C29.36,33.802,28.813,34.35,28.136,34.35z"/>
		<path fill="#3B0C36" d="M48.419,31.216c-0.181-0.214-0.388-0.401-0.618-0.557c-0.454-0.304-0.994-0.482-1.576-0.482h-0.039
			c-0.844,0.015-1.591,0.376-2.119,0.952c-0.5,0.546-0.806,1.282-0.803,2.104c0.002,1.513,1.365,2.84,2.916,2.84h0.006
			c0.799-0.002,1.541-0.305,2.09-0.854c0.42-0.425,0.693-0.964,0.795-1.553c0.031-0.173,0.047-0.353,0.047-0.534
			C49.115,32.402,48.852,31.732,48.419,31.216z M46.197,34.35c-0.678,0-1.227-0.548-1.227-1.226c0-0.676,0.549-1.226,1.227-1.226
			c0.676,0,1.225,0.549,1.225,1.226C47.422,33.802,46.873,34.35,46.197,34.35z"/>
	</g>
	<g>
		<path fill="#3B0C36" d="M60.666,15.333h-7.598v-5.065h20.689v5.066H66.16V35.24h-5.494V15.333z"/>
		<path fill="#3B0C36" d="M72.725,25.786v-0.072c0-5.493,4.421-9.953,10.38-9.953c5.922,0,10.31,4.389,10.31,9.882v0.071
			c0,5.495-4.424,9.953-10.381,9.953C77.111,35.667,72.725,31.28,72.725,25.786z M88.063,25.786v-0.072
			c0-2.817-2.033-5.279-5.029-5.279c-3.104,0-4.959,2.39-4.959,5.208v0.071c0,2.818,2.033,5.281,5.029,5.281
			C86.207,30.995,88.063,28.604,88.063,25.786z"/>
		<path fill="#3B0C36" d="M97.338,9.198h5.422v13.876l6.35-6.956h6.492l-7.276,7.526l7.526,11.595h-6.207l-4.994-7.814l-1.891,1.999
			v5.816h-5.422V9.198z"/>
		<path fill="#3B0C36" d="M116.639,25.786v-0.072c0-5.493,4.422-9.953,10.379-9.953c5.922,0,10.311,4.389,10.311,9.882v0.071
			c0,5.495-4.424,9.953-10.38,9.953C121.025,35.667,116.639,31.28,116.639,25.786z M131.977,25.786v-0.072
			c0-2.817-2.033-5.279-5.028-5.279c-3.105,0-4.96,2.39-4.96,5.208v0.071c0,2.818,2.033,5.281,5.029,5.281
			C130.123,30.995,131.977,28.604,131.977,25.786z"/>
	</g>
</g>
</svg>
