<svg width="115" height="110" viewBox="0 0 115 110" fill="none" xmlns="http://www.w3.org/2000/svg">
<path d="M30.1528 26.7882V26.6411C30.1528 11.9966 41.625 0 57.4141 0C73.203 0 84.5301 11.8477 84.5301 26.494V26.6411C84.5301 41.2874 73.0559 53.2812 57.269 53.2812C41.4801 53.2812 30.1528 41.4326 30.1528 26.7882ZM79.7147 26.8404V26.6411C79.7147 14.6202 70.3817 4.59709 57.2362 4.59709C44.0869 4.59709 34.9683 14.4142 34.9683 26.4418V26.6411C34.9683 38.6639 44.2995 48.6831 57.4467 48.6831C70.5962 48.6831 79.7147 38.8603 79.7147 26.8404Z" fill="white"/>
<path d="M81.9249 52.8856C82.211 52.191 82.1528 51.3939 81.7317 50.7129C81.7298 50.709 81.7278 50.7071 81.7278 50.7071L81.7182 50.6916L81.7143 50.6858C81.0108 49.5636 79.556 49.1728 78.325 49.9399C78.2884 49.9651 78.2554 49.9931 78.2206 50.0183C73.0247 54.7314 65.9543 57.6104 57.7014 57.6104C49.3383 57.6104 42.127 54.5922 36.8461 49.7011C36.7841 49.6565 36.7281 49.6081 36.6625 49.5685C35.3311 48.7374 33.7582 49.1602 32.9969 50.3734L32.993 50.3801L32.9834 50.3936C32.9815 50.3975 32.9795 50.3995 32.9795 50.3995C32.5467 51.0969 32.4731 51.9019 32.7264 52.6225C38.8923 58.5991 47.4835 62.2839 57.4659 62.2839C66.3563 62.2839 74.1823 59.3305 80.1782 54.4306C80.1878 54.4093 81.3915 53.3897 81.9249 52.8856Z" fill="white"/>
<path d="M14.6431 82.2691C10.9254 82.1511 7.69739 83.4481 5.01467 86.127C2.33387 88.804 0.974609 92.0583 0.974609 95.7961C0.974609 99.3865 2.23635 102.528 4.7201 105.131C7.20524 107.737 10.2847 109.102 13.8692 109.192C14.0302 109.197 14.1891 109.2 14.3483 109.2C17.854 109.2 20.9419 107.899 23.523 105.335C26.2186 102.659 27.5844 99.4349 27.5844 95.7519C27.5844 92.1636 26.3161 89.0158 23.8177 86.3978C21.3172 83.7777 18.2294 82.3902 14.6431 82.2691ZM20.8952 102.616C19.101 104.494 16.9357 105.446 14.4543 105.446C14.2761 105.446 14.096 105.442 13.9072 105.433C11.3666 105.346 9.18827 104.317 7.42385 102.376C5.65731 100.429 4.78981 98.1296 4.84898 95.5328C4.87876 92.9116 5.83116 90.6412 7.6826 88.784C9.50638 86.9561 11.7355 86.029 14.3145 86.029L14.4375 86.0301C16.9466 86.0301 19.1202 86.9635 20.8952 88.8029C22.6769 90.6487 23.6227 92.9 23.7116 95.4905C23.7689 98.2002 22.8209 100.597 20.8952 102.616Z" fill="white"/>
<path d="M40.0334 93.8873L37.0917 92.9075C34.9011 92.1701 33.8915 90.9838 34.0019 89.2709C34.0295 88.35 34.3623 87.6042 35.0174 86.9899C35.6773 86.3737 36.4343 86.0597 37.3273 86.0323C38.2499 86.0323 39.079 86.2956 39.7894 86.8141C40.4895 87.3239 40.8263 87.9728 40.8263 88.7947V89.6183H44.8817L44.8796 88.6092C44.7542 86.774 43.906 85.219 42.3536 83.9854C40.8055 82.758 39.096 82.1744 37.338 82.2723C35.2872 82.363 33.5097 83.1309 32.0593 84.5563C30.5979 85.987 29.9023 87.7326 29.9953 89.7448C30.1483 93.0908 31.8555 95.297 35.0685 96.3009L38.0482 97.2417C40.4576 98.0118 41.6132 99.3887 41.5858 101.449C41.5583 102.625 41.1912 103.586 40.4998 104.305C39.7152 105.086 38.6314 105.495 37.2745 105.522L37.1811 105.524C36.2203 105.524 35.2913 105.096 34.4197 104.251C33.5224 103.379 33.0666 102.535 33.0666 101.742V100.651H29.0581V100.893C29.0581 103.1 29.8069 105.033 31.2851 106.636C32.7635 108.24 34.6253 109.132 36.8205 109.282C37.0154 109.295 37.2064 109.3 37.3974 109.3C39.5412 109.3 41.4777 108.505 43.153 106.936C44.9855 105.223 45.8211 103.169 45.6367 100.831C45.3928 97.4039 43.5071 95.0682 40.0334 93.8873Z" fill="white"/>
<path d="M69.636 100.806C67.725 103.818 64.8024 105.375 60.9489 105.433H60.8303C58.1898 105.433 55.8698 104.477 53.9313 102.593C51.9654 100.682 50.9684 98.3583 50.9684 95.6867C50.9684 93.0171 52.0396 90.672 54.1517 88.7156C56.1791 86.8162 58.5099 85.8722 61.038 85.9407C64.8577 86.0282 67.7357 87.6863 69.5848 90.8702L69.657 90.9901H74.009L73.3683 89.5405C72.3991 87.4398 70.779 85.6764 68.5499 84.2983C66.2512 82.8929 63.7402 82.1797 61.0931 82.1797L60.9298 82.1806C57.1378 82.2407 53.8359 83.6124 51.1125 86.2578C48.3856 88.9064 47.0343 92.1312 47.0937 95.8437C47.1235 99.5257 48.5125 102.698 51.2252 105.272C53.9354 107.844 57.1993 109.163 60.9298 109.193L61.1334 109.194C66.6881 109.194 70.8637 106.706 73.5445 101.791L74.0662 100.693H69.7057L69.636 100.806Z" fill="white"/>
<path d="M89.2257 82.2689C85.4845 82.1236 82.2292 83.4025 79.5464 86.0826C76.8678 88.7595 75.5103 92.0117 75.5103 95.7517C75.5103 99.3442 76.7722 102.484 79.2622 105.087C81.7541 107.692 84.8124 109.072 88.356 109.192C88.5046 109.197 88.6508 109.199 88.7972 109.199C92.4578 109.199 95.6327 107.806 98.2432 105.058V108.615H102.12V95.716C102.237 92.1508 101.015 89.0156 98.483 86.3956C95.9553 83.7775 92.8374 82.39 89.2257 82.2689ZM95.4291 102.599C93.5077 104.595 91.141 105.541 88.445 105.433C85.932 105.316 83.7561 104.277 81.9788 102.336C80.1996 100.396 79.3257 98.0988 79.3829 95.5115C79.4107 92.8967 80.3649 90.6391 82.2163 88.7997C84.0679 86.9612 86.3393 86.0299 88.9712 86.0299C91.4803 86.0299 93.6625 86.9603 95.4522 88.7965C97.2466 90.636 98.1861 92.8798 98.2432 95.4694C98.3006 98.2012 97.3549 100.6 95.4291 102.599Z" fill="white"/>
<path d="M115 86.2435V82.4128L114.769 82.4022C113.388 82.3392 112.031 82.6645 110.72 83.3609C109.56 83.9741 108.618 84.8063 107.912 85.843V82.89H104.262V108.616H108.313V93.2733C108.313 91.7005 108.589 90.43 109.125 89.4998C109.467 88.936 110.124 88.2576 111.078 87.4823C112.012 86.7216 113.252 86.3087 114.767 86.2518L115 86.2435Z" fill="white"/>
</svg>
