<?xml version="1.0" encoding="utf-8"?>
<!-- Generator: Adobe Illustrator 24.1.3, SVG Export Plug-In . SVG Version: 6.00 Build 0)  -->
<svg version="1.1" id="Layer_1" xmlns="http://www.w3.org/2000/svg" xmlns:xlink="http://www.w3.org/1999/xlink" x="0px" y="0px"
	 viewBox="0 0 18 18" style="enable-background:new 0 0 18 18;" xml:space="preserve">
<style type="text/css">
	.st0{fill:#FFFFFF;}
</style>
<g>
	<path class="st0" d="M7,10.3c0.2-0.1,0.4-0.2,0.6-0.2c0.9,0,1.9,0,2.8,0c1,0,2.1,0,3.1,0c1.1,0,2.1-0.7,2.4-1.8
		c0.3-1.1,0.7-2.3,1-3.4C17,4.6,17,4.1,16.8,3.8c-0.4-0.8-1-1.1-1.9-1.1c0,0,0,0,0,0c-2,0-4.1,0-6.1,0c-0.9,0-1.8,0-2.8,0
		c-0.1,0-0.2,0-0.2-0.1C5.3,1.5,4.5,1,3.4,1C3,1,2.5,1,2.1,1C2,1,1.8,1,1.7,1C1.4,1,1.3,1.1,1.1,1.2C1,1.3,1,1.4,1,1.6
		c0,0.3,0.3,0.5,0.7,0.5c0.2,0,0.4,0,0.6,0c0.4,0,0.8,0,1.1,0c0.6,0,1.2,0.4,1.4,1C5,3.6,5.2,4,5.3,4.5c0.3,0.8,0.5,1.6,0.8,2.4
		c0.1,0.2,0.1,0.4,0.2,0.6C6.4,8.1,6.6,8.6,7,9.1c-0.9,0.2-1.5,1.1-1.3,2c0.2,0.9,0.9,1.4,1.8,1.4c1.3,0,2.6,0,3.9,0
		c1,0,1.9,0,2.8,0l2,0h0c0.1,0,0.2,0,0.2,0c0.2,0,0.3-0.1,0.4-0.3c0.1-0.1,0.1-0.3,0-0.5c-0.1-0.3-0.4-0.3-0.6-0.3c0,0,0,0,0,0
		c-0.7,0-1.3,0-2,0l-0.7,0h-1.6c-1.5,0-3,0-4.4,0c-0.3,0-0.6-0.2-0.7-0.5C6.7,10.7,6.8,10.4,7,10.3z M7.6,8C7.3,7,6.9,5.9,6.6,4.8
		C6.5,4.5,6.3,4.1,6.2,3.7c0,0,0,0,0,0l2,0c2.2,0,4.5,0,6.7,0c0.3,0,0.6,0.1,0.7,0.3c0.2,0.2,0.2,0.5,0.1,0.8l-0.1,0.5
		c-0.1,0.4-0.2,0.7-0.3,1.1c-0.1,0.2-0.1,0.5-0.2,0.7C15.1,7.4,15,7.7,14.9,8c-0.2,0.7-0.8,1.1-1.5,1.1c-1.3,0-2.8,0-4.4,0
		C8.4,9.1,7.8,8.7,7.6,8z"/>
	<path class="st0" d="M7.5,13.3C7.5,13.3,7.5,13.3,7.5,13.3c-0.5,0-1,0.2-1.4,0.5c-0.4,0.4-0.6,0.8-0.6,1.3c0,1,0.9,1.9,1.9,1.9h0
		c1.1,0,1.9-0.8,1.9-1.9C9.4,14.1,8.6,13.3,7.5,13.3z M7.5,14.3C7.5,14.3,7.5,14.3,7.5,14.3c0.4,0,0.8,0.4,0.8,0.8
		c0,0.4-0.4,0.8-0.8,0.8c-0.2,0-0.4-0.1-0.6-0.2c-0.2-0.2-0.3-0.4-0.2-0.6C6.7,14.7,7.1,14.3,7.5,14.3z"/>
	<path class="st0" d="M14.9,13.3C14.9,13.3,14.9,13.3,14.9,13.3c-0.5,0-1,0.2-1.4,0.6c-0.4,0.4-0.6,0.8-0.6,1.3c0,1,0.9,1.9,1.9,1.9
		c0,0,0,0,0,0c0.5,0,1-0.2,1.3-0.5c0.4-0.4,0.6-0.8,0.6-1.3C16.8,14.1,16,13.3,14.9,13.3z M14.9,15.9c-0.4,0-0.8-0.3-0.8-0.8
		c0-0.4,0.3-0.8,0.8-0.8c0,0,0,0,0,0c0.2,0,0.4,0.1,0.6,0.2c0.2,0.1,0.2,0.4,0.2,0.6C15.7,15.6,15.3,15.9,14.9,15.9
		C14.9,15.9,14.9,15.9,14.9,15.9z"/>
</g>
</svg>
