<?xml version="1.0" encoding="utf-8"?>
<!-- Generator: Adobe Illustrator 16.0.0, SVG Export Plug-In . SVG Version: 6.00 Build 0)  -->
<!DOCTYPE svg PUBLIC "-//W3C//DTD SVG 1.1//EN" "http://www.w3.org/Graphics/SVG/1.1/DTD/svg11.dtd">
<svg version="1.1" id="Layer_1" xmlns="http://www.w3.org/2000/svg" xmlns:xlink="http://www.w3.org/1999/xlink" x="0px" y="0px"
	 width="85.631px" height="26px" viewBox="0 0 85.631 26" enable-background="new 0 0 85.631 26" xml:space="preserve">
<g>
	<g>
		<linearGradient id="SVGID_1_" gradientUnits="userSpaceOnUse" x1="37.0029" y1="12.7539" x2="46.5366" y2="12.7539">
			<stop  offset="0.3498" style="stop-color:#3D0137"/>
			<stop  offset="1" style="stop-color:#3D0137"/>
		</linearGradient>
		<path fill="url(#SVGID_1_)" d="M46.535,14.272c0.033,1.334-0.444,2.486-1.431,3.457c-0.988,0.971-2.147,1.435-3.481,1.392
			c-1.292-0.033-2.384-0.521-3.278-1.465c-0.895-0.943-1.342-2.066-1.342-3.367c0-1.355,0.481-2.518,1.445-3.489
			c0.963-0.971,2.109-1.434,3.441-1.391c1.364,0.055,2.5,0.602,3.409,1.643V6.384h1.236V14.272z M45.299,14.175
			c-0.021-0.981-0.367-1.819-1.035-2.517s-1.481-1.046-2.438-1.046c-0.978-0.01-1.819,0.335-2.52,1.038
			c-0.701,0.702-1.057,1.55-1.067,2.541c-0.011,0.98,0.316,1.838,0.979,2.573s1.472,1.119,2.429,1.152
			c1.022,0.055,1.894-0.3,2.617-1.063C44.986,16.091,45.332,15.199,45.299,14.175z"/>
		<linearGradient id="SVGID_2_" gradientUnits="userSpaceOnUse" x1="47.8369" y1="12.5898" x2="56.0186" y2="12.5898">
			<stop  offset="0.3498" style="stop-color:#3D0137"/>
			<stop  offset="1" style="stop-color:#3D0137"/>
		</linearGradient>
		<path fill="url(#SVGID_2_)" d="M56.019,18.86h-1.236v-5.401c0-0.78-0.29-1.455-0.869-2.024c-0.581-0.569-1.258-0.844-2.035-0.822
			c-0.787,0.011-1.452,0.274-1.993,0.789c-0.542,0.516-0.813,1.169-0.813,1.961v5.498h-1.235V6.318h1.235v4.587
			c0.707-0.921,1.615-1.409,2.723-1.464c1.152-0.054,2.144,0.325,2.976,1.139s1.248,1.816,1.248,3.01V18.86z"/>
		<linearGradient id="SVGID_3_" gradientUnits="userSpaceOnUse" x1="57.1899" y1="14.2148" x2="66.7251" y2="14.2148">
			<stop  offset="0.3498" style="stop-color:#3D0137"/>
			<stop  offset="1" style="stop-color:#3D0137"/>
		</linearGradient>
		<path fill="url(#SVGID_3_)" d="M66.722,14.208v0.064v4.588h-1.236v-1.447c-1.005,1.149-2.236,1.701-3.694,1.658
			c-1.275-0.043-2.361-0.537-3.257-1.479c-0.896-0.943-1.345-2.066-1.345-3.367c0-1.356,0.482-2.52,1.448-3.489
			c0.965-0.972,2.121-1.43,3.465-1.375c1.302,0.044,2.408,0.539,3.319,1.489C66.332,11.798,66.765,12.917,66.722,14.208z
			 M65.486,14.117c-0.022-0.978-0.37-1.814-1.044-2.51c-0.673-0.695-1.483-1.044-2.429-1.044c-0.989,0-1.832,0.349-2.527,1.044
			s-1.049,1.538-1.06,2.527c-0.022,0.979,0.302,1.834,0.97,2.567s1.476,1.122,2.421,1.165c1.022,0.045,1.894-0.312,2.617-1.068
			C65.157,16.044,65.507,15.15,65.486,14.117z"/>
		<linearGradient id="SVGID_4_" gradientUnits="userSpaceOnUse" x1="68.0073" y1="14.2148" x2="77.5425" y2="14.2148">
			<stop  offset="0.3498" style="stop-color:#3D0137"/>
			<stop  offset="1" style="stop-color:#3D0137"/>
		</linearGradient>
		<path fill="url(#SVGID_4_)" d="M77.54,14.208v0.064v4.588h-1.236v-1.447c-1.004,1.149-2.236,1.701-3.694,1.658
			c-1.274-0.043-2.36-0.537-3.257-1.479c-0.897-0.943-1.345-2.066-1.345-3.367c0-1.356,0.482-2.52,1.448-3.489
			c0.965-0.972,2.121-1.43,3.464-1.375c1.302,0.044,2.408,0.539,3.319,1.489C77.149,11.798,77.583,12.917,77.54,14.208z
			 M76.303,14.117c-0.021-0.978-0.37-1.814-1.044-2.51s-1.483-1.044-2.428-1.044c-0.99,0-1.832,0.349-2.528,1.044
			c-0.696,0.695-1.049,1.538-1.06,2.527c-0.022,0.979,0.302,1.834,0.97,2.567c0.669,0.733,1.476,1.122,2.421,1.165
			c1.022,0.045,1.894-0.312,2.617-1.068C75.975,16.044,76.325,15.15,76.303,14.117z"/>
		<linearGradient id="SVGID_5_" gradientUnits="userSpaceOnUse" x1="78.7432" y1="14.1328" x2="82.4849" y2="14.1328">
			<stop  offset="0.3498" style="stop-color:#3D0137"/>
			<stop  offset="1" style="stop-color:#3D0137"/>
		</linearGradient>
		<path fill="url(#SVGID_5_)" d="M82.485,10.646c-0.575,0.021-1.042,0.179-1.399,0.473c-0.357,0.292-0.602,0.546-0.732,0.764
			c-0.206,0.358-0.309,0.835-0.309,1.431v5.548h-1.302V9.588h1.155v1.317c0.26-0.498,0.645-0.883,1.155-1.154
			c0.466-0.25,0.943-0.363,1.432-0.342V10.646z"/>
		<linearGradient id="SVGID_6_" gradientUnits="userSpaceOnUse" x1="27.6816" y1="14.2188" x2="35.8804" y2="14.2188">
			<stop  offset="0.3498" style="stop-color:#3D0137"/>
			<stop  offset="1" style="stop-color:#3D0137"/>
		</linearGradient>
		<path fill="url(#SVGID_6_)" d="M35.88,14.875c0,1.204-0.388,2.206-1.163,3.009s-1.754,1.204-2.936,1.204
			c-1.182,0-2.161-0.401-2.937-1.204c-0.775-0.803-1.163-1.805-1.163-3.009V9.351h1.236v5.681c0,0.783,0.287,1.454,0.859,2.014
			c0.573,0.56,1.241,0.839,2.004,0.839c0.763,0,1.431-0.279,2.004-0.839s0.859-1.23,0.859-2.014V9.351h1.236V14.875z"/>
	</g>
	<linearGradient id="SVGID_7_" gradientUnits="userSpaceOnUse" x1="2.7681" y1="12.7031" x2="23.1284" y2="12.7031">
		<stop  offset="0.3498" style="stop-color:#3D0137"/>
		<stop  offset="1" style="stop-color:#3D0137"/>
	</linearGradient>
	<path fill="url(#SVGID_7_)" d="M12.949,2.521c-5.623,0-10.181,4.559-10.181,10.181s4.559,10.182,10.181,10.182
		c5.622,0,10.179-4.56,10.179-10.182S18.571,2.521,12.949,2.521z M15.292,8.762c0.025-0.248,0.126-0.468,0.318-0.663
		c0.163-0.168,0.346-0.27,0.555-0.312h1.323v2.209h-1.096c-0.306,0-0.562-0.111-0.782-0.336c-0.191-0.195-0.293-0.415-0.318-0.664
		V8.762z M8.329,7.787h1.324c0.208,0.042,0.391,0.144,0.554,0.312c0.191,0.195,0.292,0.415,0.317,0.663v0.234
		C10.5,9.245,10.399,9.465,10.208,9.66c-0.22,0.225-0.476,0.336-0.782,0.336H8.329V7.787z M16.189,17.133
		c-0.865,0.896-1.969,1.35-3.281,1.35s-2.416-0.453-3.281-1.35c-0.862-0.892-1.298-2.016-1.298-3.343v-2.767l2.196-0.002
		c0,0,0.004,3.087,0.012,3.165c0.052,0.55,0.282,1.019,0.703,1.43c0.483,0.473,1.029,0.703,1.669,0.703
		c0.639,0,1.185-0.23,1.668-0.703c0.3-0.293,0.504-0.616,0.615-0.978c0.066-0.217,0.099-0.445,0.099-0.691v-2.926l2.196,0.002v2.767
		C17.487,15.117,17.052,16.241,16.189,17.133z"/>
</g>
</svg>
